<svg xmlns="http://www.w3.org/2000/svg" width="20" height="20" viewBox="0 0 20 20" fill="none">
<path d="M0 10C0 4.47715 4.47715 0 10 0V0C15.5228 0 20 4.47715 20 10V10C20 15.5228 15.5228 20 10 20V20C4.47715 20 0 15.5228 0 10V10Z" fill="#7F7FD5"/>
<path d="M10.2777 14.7513C12.0957 14.7704 13.7564 13.7228 14.5222 12.0739C14.0402 12.2842 13.5183 12.3872 12.9926 12.3757C10.9319 12.3734 9.26191 10.7035 9.25959 8.64278C9.28022 7.24888 10.0493 5.97387 11.2726 5.30534C10.9427 5.26333 10.6102 5.24452 10.2777 5.24916C7.65367 5.24916 5.52661 7.3763 5.52661 10.0002C5.52661 12.6242 7.65367 14.7513 10.2777 14.7513Z" fill="#FDFDFF"/>
</svg>